<?xml version="1.0" standalone="no"?>
<!DOCTYPE svg PUBLIC "-//W3C//DTD SVG 20010904//EN"
 "http://www.w3.org/TR/2001/REC-SVG-20010904/DTD/svg10.dtd">
<svg version="1.0" xmlns="http://www.w3.org/2000/svg"
 width="1597.000000pt" height="532.000000pt" viewBox="0 0 1597.000000 532.000000"
 preserveAspectRatio="xMidYMid meet">

<g transform="translate(0.000000,532.000000) scale(0.100000,-0.100000)"
fill="#000000" stroke="none">
<path d="M9965 4621 c-164 -66 -216 -88 -390 -164 -120 -52 -551 -269 -705
-355 -324 -181 -734 -445 -979 -632 -120 -91 -403 -325 -486 -400 -22 -20 -89
-81 -150 -136 -268 -241 -661 -631 -840 -834 -123 -140 -305 -377 -345 -449
-13 -22 -27 -41 -31 -41 -9 0 -122 127 -157 177 -29 40 -102 161 -102 169 0 2
26 30 59 63 79 79 105 146 98 252 -10 152 -102 255 -262 290 -78 18 -650 16
-671 -2 -23 -19 -16 -59 18 -113 l33 -50 3 -274 c3 -315 -5 -426 -37 -471 -12
-16 -28 -45 -36 -64 -12 -29 -12 -37 0 -53 12 -17 31 -19 202 -22 173 -3 191
-2 213 16 27 22 24 49 -14 105 -36 53 -48 102 -44 190 l3 78 64 3 c77 3 89 -6
133 -100 39 -84 45 -132 24 -189 -20 -52 -14 -82 21 -96 29 -11 893 -12 908
-1 6 4 50 61 99 127 82 110 233 303 246 315 3 3 35 41 70 85 295 364 757 850
1151 1210 628 573 1277 1030 1904 1341 104 52 185 94 180 94 -6 -1 -86 -31
-180 -69z m-4435 -2210 c122 -65 112 -284 -17 -350 -26 -13 -122 -14 -143 -1
-21 13 -22 328 -1 353 19 24 115 23 161 -2z"/>
<path d="M4510 4610 c-8 -5 -10 -10 -5 -10 6 0 17 5 25 10 8 5 11 10 5 10 -5
0 -17 -5 -25 -10z"/>
<path d="M6429 4554 c-126 -62 -393 -209 -431 -238 -17 -12 -17 -16 -2 -45 8
-17 17 -31 19 -31 3 0 48 33 102 73 117 87 315 221 396 266 50 29 66 41 53 41
-2 0 -64 -30 -137 -66z"/>
<path d="M4335 4541 c-238 -99 -278 -116 -467 -208 -164 -79 -329 -165 -533
-280 -134 -75 -421 -256 -565 -356 -138 -96 -473 -345 -515 -384 -11 -10 -49
-43 -85 -73 -290 -243 -768 -735 -1100 -1130 -30 -36 -57 -67 -60 -70 -62 -61
-401 -494 -400 -513 0 -4 111 -8 247 -8 l246 -1 90 128 c392 559 916 1170
1361 1586 239 224 354 326 506 449 30 24 57 46 60 49 10 12 228 178 320 244
128 93 335 231 445 296 50 29 106 63 125 75 43 27 249 136 385 204 55 27 96
50 90 50 -5 0 -73 -26 -150 -58z"/>
<path d="M5705 4138 c-44 -33 -91 -67 -104 -76 -64 -46 -111 -84 -111 -89 0
-16 65 -113 74 -110 5 2 71 57 147 123 l137 119 -24 48 c-14 26 -28 47 -32 46
-4 0 -43 -28 -87 -61z"/>
<path d="M5254 3807 c-28 -23 -70 -58 -94 -77 -40 -32 -180 -148 -188 -155 -5
-5 91 -165 98 -165 3 0 77 69 165 153 l158 153 -37 67 c-21 37 -41 67 -44 67
-4 0 -30 -19 -58 -43z"/>
<path d="M4671 3309 l-135 -129 17 -33 c39 -76 96 -172 104 -174 5 -2 25 14
44 34 19 21 76 84 127 140 l94 102 -52 96 c-28 52 -54 95 -58 95 -4 -1 -67
-59 -141 -131z"/>
<path d="M3109 2867 c-41 -27 -57 -78 -43 -134 25 -101 184 -112 229 -17 19
40 19 65 1 109 -27 64 -122 86 -187 42z"/>
<path d="M4584 2856 c-30 -30 -34 -40 -34 -85 0 -42 5 -56 29 -83 27 -31 34
-33 91 -33 57 0 64 3 90 32 38 43 47 91 25 137 -22 45 -60 66 -121 66 -39 0
-51 -5 -80 -34z"/>
<path d="M11975 2836 c-43 -19 -66 -49 -72 -94 -19 -144 198 -185 236 -44 27
95 -74 180 -164 138z"/>
<path d="M1946 2554 c-24 -23 -20 -42 20 -107 l36 -58 -1 -335 c-2 -360 0
-348 -56 -439 -31 -51 -31 -70 0 -91 21 -14 62 -15 342 -12 294 4 323 6 385
26 80 27 156 91 189 160 32 64 33 170 2 227 -37 69 -108 118 -194 133 l-44 8
48 23 c165 80 169 321 8 418 -90 54 -156 63 -455 63 -227 0 -267 -2 -280 -16z
m502 -140 c35 -24 52 -68 52 -132 0 -94 -50 -152 -130 -152 -41 0 -53 7 -69
37 -17 33 -14 198 4 233 14 27 20 30 68 30 31 0 62 -6 75 -16z m50 -443 c89
-48 104 -182 31 -266 -47 -53 -167 -75 -217 -39 -21 14 -22 22 -22 152 0 75 4
143 9 151 18 29 147 30 199 2z"/>
<path d="M2978 2559 c-27 -15 -22 -49 16 -108 31 -47 35 -62 40 -144 4 -51 3
-209 -1 -353 l-8 -260 -37 -55 c-39 -55 -45 -82 -28 -109 8 -12 44 -16 203
-18 169 -3 197 -1 211 13 24 25 20 51 -19 115 l-35 58 0 304 c0 168 4 328 10
355 5 28 23 71 40 96 32 47 38 85 18 105 -15 15 -384 16 -410 1z"/>
<path d="M3512 2558 c-20 -20 -13 -59 21 -112 l32 -51 0 -346 0 -346 -37 -60
c-42 -68 -48 -107 -19 -123 25 -13 740 -14 775 0 35 13 41 28 67 183 27 155
24 170 -33 175 -46 4 -78 -23 -128 -108 -49 -84 -88 -111 -174 -117 -47 -4
-72 -1 -98 11 -61 29 -63 45 -60 371 1 160 5 306 8 326 3 20 21 61 40 90 36
56 42 87 22 107 -17 17 -399 17 -416 0z"/>
<path d="M4468 2559 c-27 -15 -22 -57 15 -113 l32 -51 0 -346 0 -346 -37 -60
c-42 -68 -48 -107 -19 -123 12 -6 94 -10 198 -10 242 0 257 11 186 132 l-38
63 3 310 c1 170 5 326 8 346 3 20 21 61 40 90 36 56 42 87 22 107 -15 15 -384
16 -410 1z"/>
<path d="M8350 2532 c-50 -10 -53 -50 -8 -122 l33 -53 2 -253 c1 -143 -2 -256
-7 -259 -5 -3 -21 16 -36 42 -116 201 -358 603 -374 621 -20 21 -29 22 -198
22 -125 0 -182 -4 -190 -12 -20 -20 -14 -51 21 -104 l32 -49 0 -331 0 -331
-37 -60 c-42 -68 -48 -107 -19 -123 32 -17 223 -13 249 6 30 21 28 36 -12 102
-45 74 -51 132 -41 428 6 201 9 226 22 208 7 -10 103 -167 211 -348 108 -181
213 -346 233 -367 l36 -39 101 0 c148 0 142 -14 143 309 0 141 4 319 8 397 7
133 9 144 38 190 40 66 46 86 29 109 -11 16 -28 19 -107 21 -52 1 -110 -1
-129 -4z"/>
<path d="M8941 2521 c-26 -26 -26 -37 -1 -84 35 -65 28 -97 -86 -384 -125
-317 -127 -321 -198 -408 -60 -72 -66 -93 -38 -118 15 -14 41 -17 140 -17 109
0 124 2 142 20 11 11 20 26 20 34 0 8 -9 35 -20 61 -22 52 -26 116 -9 164 l11
31 188 0 c211 0 200 5 200 -80 0 -32 -9 -68 -29 -109 -32 -69 -31 -98 6 -112
13 -5 111 -9 217 -9 178 0 194 1 210 19 23 25 14 70 -20 102 -52 48 -104 162
-234 504 -84 220 -142 359 -157 375 -23 24 -29 25 -172 28 -140 4 -150 3 -170
-17z m221 -388 c32 -86 58 -160 58 -165 0 -9 -243 -11 -252 -3 -3 3 25 79 61
169 36 90 68 162 70 160 2 -2 31 -75 63 -161z"/>
<path d="M9800 2527 c-37 -18 -36 -54 2 -112 l33 -50 -1 -330 c0 -347 1 -338
-49 -420 -30 -48 -32 -81 -6 -95 12 -6 95 -10 200 -10 179 0 181 0 196 24 17
26 14 37 -27 107 -22 36 -29 63 -34 131 l-7 85 44 49 c65 72 67 74 73 74 12 0
128 -210 142 -258 15 -49 15 -58 0 -96 -21 -54 -20 -79 2 -99 16 -15 47 -17
223 -17 146 0 208 3 217 12 28 28 14 74 -40 135 -29 32 -55 60 -58 63 -23 21
-76 101 -125 185 -32 55 -82 142 -112 193 l-54 94 38 41 c90 101 122 132 178
174 33 24 68 51 78 58 21 18 22 61 1 69 -26 10 -241 7 -269 -4 -25 -10 -26
-12 -20 -64 7 -50 5 -55 -26 -92 -33 -38 -195 -218 -252 -279 l-28 -30 3 145
3 145 38 60 c43 70 44 78 17 105 -18 18 -33 20 -187 20 -115 0 -176 -4 -193
-13z"/>
<path d="M10908 2529 c-27 -15 -22 -62 11 -114 16 -26 32 -63 35 -83 3 -20 2
-174 -2 -342 l-7 -305 -32 -46 c-41 -60 -49 -91 -28 -113 15 -14 56 -16 385
-16 338 0 370 1 390 18 17 14 27 44 46 137 35 175 31 205 -24 205 -36 0 -77
-29 -103 -72 -80 -132 -93 -142 -202 -146 -141 -6 -147 7 -146 338 1 313 6
364 47 424 37 56 42 100 13 116 -26 13 -360 13 -383 -1z"/>
<path d="M11828 2529 c-27 -15 -22 -60 15 -115 l32 -49 0 -330 0 -331 -43 -70
c-23 -39 -42 -75 -42 -81 0 -5 8 -17 18 -26 16 -15 45 -17 203 -17 131 0 189
4 197 12 20 20 13 59 -20 112 l-33 50 -3 252 c-2 138 1 292 7 342 9 79 15 98
45 144 42 61 43 71 16 98 -19 19 -33 20 -197 20 -102 0 -185 -5 -195 -11z"/>
<path d="M12308 2529 c-12 -6 -18 -22 -18 -45 0 -30 12 -50 73 -122 41 -48
100 -130 132 -182 32 -52 68 -111 80 -130 12 -19 39 -63 60 -97 l37 -62 -4
-98 c-3 -89 -7 -104 -36 -156 -34 -60 -40 -95 -20 -115 15 -15 360 -17 389 -2
27 15 24 58 -7 104 -21 30 -29 59 -36 125 -5 47 -8 103 -5 123 5 35 132 282
203 394 18 28 62 83 98 123 50 54 66 78 66 101 0 43 -23 50 -158 50 -107 0
-121 -2 -138 -21 -13 -15 -17 -31 -14 -62 13 -146 9 -168 -59 -302 -35 -69
-68 -125 -72 -125 -8 0 -111 176 -138 235 -27 60 -31 98 -15 158 17 68 12 95
-23 108 -33 12 -373 11 -395 -2z"/>
<path d="M13543 2528 c-29 -14 -30 -46 -2 -100 15 -29 20 -53 16 -79 -6 -43
-207 -554 -244 -617 -13 -24 -44 -65 -69 -93 -49 -56 -59 -100 -25 -119 11 -5
73 -10 139 -10 162 0 175 14 126 141 -16 40 -16 52 -4 107 l13 62 192 0 c191
0 193 0 199 -22 14 -52 6 -106 -25 -166 -35 -68 -34 -106 3 -116 13 -3 111 -6
219 -6 177 0 197 2 212 18 26 29 20 53 -24 107 -76 92 -77 94 -236 515 -134
355 -139 367 -175 379 -40 14 -286 13 -315 -1z m216 -393 c33 -88 57 -163 55
-167 -7 -11 -254 -10 -254 0 0 4 29 79 65 167 36 87 65 160 65 163 0 16 15
-19 69 -163z"/>
<path d="M14273 2528 c-28 -14 -39 -41 -63 -168 -30 -159 -26 -180 35 -180 44
0 68 21 119 103 48 77 99 117 151 117 l27 0 -3 -348 -4 -349 -37 -60 c-39 -63
-47 -100 -26 -121 8 -8 67 -12 198 -12 172 0 188 2 204 19 21 23 16 43 -25
110 l-29 47 2 354 3 355 37 -1 c52 -2 100 -41 139 -115 36 -67 73 -99 116 -99
58 0 63 26 37 181 -21 128 -30 154 -60 168 -33 15 -789 14 -821 -1z"/>
<path d="M12015 1365 c-14 -13 -25 -33 -25 -45 0 -28 44 -70 73 -70 37 0 77
36 77 70 0 64 -79 92 -125 45z"/>
<path d="M14766 1369 c-50 -40 -20 -119 46 -119 34 0 78 40 78 70 0 28 -44 70
-73 70 -13 0 -36 -9 -51 -21z"/>
<path d="M7589 1350 c-18 -10 -45 -120 -36 -145 11 -26 36 -16 68 28 37 51 76
76 85 52 3 -8 4 -84 2 -167 -3 -128 -7 -158 -22 -180 -32 -48 -18 -58 79 -58
98 0 108 8 81 68 -14 30 -16 64 -14 187 l3 150 25 0 c17 0 32 -11 50 -39 29
-42 55 -61 70 -51 21 13 3 140 -22 156 -18 12 -349 11 -369 -1z"/>
<path d="M10520 1348 c-59 -16 -65 -29 -40 -78 20 -39 21 -51 14 -173 -4 -82
-12 -143 -21 -160 -25 -49 -13 -57 81 -57 94 0 110 12 80 58 -15 22 -17 52
-15 210 2 130 -1 188 -10 198 -13 16 -38 17 -89 2z"/>
<path d="M10940 1348 c-55 -15 -65 -29 -46 -66 23 -44 23 -299 0 -343 -26 -50
-15 -59 74 -59 87 0 108 10 90 44 -20 38 -26 84 -13 102 11 16 15 12 40 -30
23 -39 26 -51 17 -70 -17 -37 2 -46 95 -46 97 0 113 13 70 58 -13 15 -48 61
-76 102 -57 83 -58 80 18 122 17 9 31 24 31 33 0 12 -14 15 -70 15 l-70 0 0
-28 c0 -18 -11 -38 -30 -57 l-30 -29 0 120 c0 150 -7 159 -100 132z"/>
<path d="M11470 1350 c-13 -8 -13 -13 3 -41 24 -43 25 -314 1 -365 -26 -55
-16 -64 73 -64 102 0 114 8 89 54 -11 22 -19 57 -20 93 l-1 58 83 3 82 3 0
-62 c0 -39 -6 -71 -16 -89 -30 -49 -16 -60 81 -60 95 0 110 10 81 55 -13 20
-16 53 -16 177 0 132 3 158 19 189 27 51 15 59 -86 59 -93 0 -108 -11 -79 -55
10 -15 16 -46 16 -85 l0 -60 -80 0 -80 0 0 56 c0 34 6 67 16 84 29 48 15 60
-73 60 -43 0 -85 -5 -93 -10z"/>
<path d="M13863 1343 c-47 -16 -53 -32 -28 -79 11 -21 15 -63 15 -154 0 -108
-3 -131 -21 -164 -31 -59 -23 -66 76 -66 95 0 110 10 81 55 -13 20 -16 56 -16
209 0 101 -3 191 -6 200 -8 20 -45 19 -101 -1z"/>
<path d="M13628 1289 c-10 -5 -18 -19 -18 -29 0 -21 -35 -50 -61 -50 -18 0
-33 -26 -23 -41 3 -5 14 -9 25 -9 18 0 19 -8 19 -109 0 -94 3 -112 21 -135 39
-50 119 -53 169 -6 40 37 31 57 -23 56 l-42 -1 0 95 0 95 37 3 c61 5 60 48 -2
54 -30 2 -35 6 -32 25 7 50 -29 76 -70 52z"/>
<path d="M8056 1210 c-36 -11 -66 -38 -66 -61 0 -34 12 -49 40 -49 21 0 33 8
49 35 25 43 57 47 71 9 15 -38 12 -54 -10 -54 -46 0 -123 -24 -150 -47 -25
-20 -30 -32 -30 -66 0 -23 4 -47 8 -53 31 -45 121 -59 163 -25 24 19 25 19 48
0 28 -23 88 -25 119 -3 28 19 28 32 0 61 -18 19 -23 39 -28 112 -3 57 -10 94
-20 106 -33 40 -123 56 -194 35z m104 -209 c0 -42 -14 -61 -47 -61 -42 0 -45
76 -4 96 35 18 51 7 51 -35z"/>
<path d="M8421 1211 c-57 -16 -84 -109 -44 -153 10 -11 51 -36 91 -56 75 -36
92 -63 43 -70 -42 -6 -72 8 -93 44 -16 28 -26 34 -46 32 -14 -2 -30 -11 -36
-21 -19 -30 12 -69 72 -92 45 -17 52 -23 49 -42 -3 -15 2 -23 16 -27 27 -7 16
-30 -16 -34 -34 -4 -35 -26 -2 -48 17 -11 35 -14 57 -10 44 9 58 23 58 60 0
36 -15 56 -42 56 -36 0 -18 27 23 34 71 11 117 82 88 135 -9 16 -44 41 -94 66
-60 30 -80 45 -80 60 0 14 8 21 27 23 22 3 32 -4 53 -37 14 -23 31 -41 39 -41
17 0 46 32 46 51 0 20 -36 58 -67 70 -27 10 -105 11 -142 0z"/>
<path d="M8735 1204 c-55 -20 -59 -27 -40 -65 23 -43 21 -170 -2 -205 -28 -43
-12 -54 75 -54 97 0 106 8 80 67 -17 39 -19 57 -13 138 10 135 -6 154 -100
119z"/>
<path d="M8956 1207 c-54 -17 -65 -37 -43 -82 25 -52 22 -137 -5 -186 -29 -51
-19 -59 77 -59 92 0 106 9 83 51 -13 21 -18 53 -18 105 0 87 11 114 45 114 33
0 45 -27 45 -105 0 -50 -5 -76 -22 -106 -30 -51 -19 -59 85 -59 88 0 99 9 73
59 -18 35 -22 161 -6 192 6 11 21 19 35 19 14 0 29 -8 35 -19 16 -31 12 -146
-6 -185 -27 -55 -16 -66 68 -66 96 0 108 8 85 55 -12 26 -17 62 -17 129 0 85
-2 95 -24 119 -42 45 -117 48 -169 7 l-26 -20 -27 25 c-33 31 -84 33 -137 6
-37 -19 -38 -19 -48 0 -11 21 -27 23 -83 6z"/>
<path d="M9625 1213 c-27 -7 -75 -53 -75 -73 0 -23 20 -40 47 -40 16 0 30 11
44 35 31 52 79 43 79 -16 0 -25 -4 -28 -52 -34 -72 -10 -116 -32 -134 -68 -21
-39 -11 -90 23 -117 34 -26 111 -28 143 -2 23 18 24 18 42 0 12 -12 32 -18 61
-18 71 1 98 39 57 80 -16 16 -20 33 -20 90 0 90 -17 132 -63 153 -33 16 -107
21 -152 10z m101 -187 c3 -7 1 -29 -4 -47 -7 -29 -13 -34 -38 -34 -26 0 -29 4
-32 33 -2 18 2 40 9 48 15 18 58 18 65 0z"/>
<path d="M10000 1204 c-45 -20 -68 -41 -91 -86 -38 -74 -13 -164 58 -213 30
-20 50 -25 99 -25 52 0 67 4 102 29 37 28 61 65 48 78 -3 3 -25 -5 -50 -17
-39 -18 -51 -20 -80 -10 -49 16 -66 41 -73 101 -4 44 -2 58 14 78 30 37 67 23
85 -30 15 -48 43 -64 79 -45 28 14 37 58 18 93 -29 53 -138 78 -209 47z"/>
<path d="M10316 1206 c-55 -17 -64 -35 -41 -85 21 -48 16 -145 -11 -186 -29
-45 -14 -55 81 -55 95 0 110 10 81 55 -12 19 -16 50 -16 139 0 63 -3 121 -6
130 -7 18 -33 19 -88 2z"/>
<path d="M10723 1203 c-47 -16 -54 -37 -28 -83 22 -39 19 -136 -6 -177 -34
-54 -23 -63 76 -63 95 0 110 10 81 55 -12 19 -16 51 -16 143 0 150 -9 160
-107 125z"/>
<path d="M12037 1204 c-55 -17 -66 -34 -43 -69 22 -33 22 -155 0 -196 -26 -51
-15 -59 80 -59 92 0 104 8 80 51 -9 16 -13 61 -14 137 0 157 -6 166 -103 136z"/>
<path d="M12601 1206 c-58 -15 -71 -36 -48 -75 23 -39 23 -152 1 -191 -30 -49
-15 -60 81 -60 82 0 85 1 85 23 -1 12 -7 33 -15 47 -20 35 -20 149 1 178 18
26 46 29 65 5 20 -23 16 -151 -6 -193 -27 -52 -17 -60 80 -60 96 0 99 3 69 75
-12 29 -14 55 -9 107 6 60 10 71 31 80 20 9 28 8 42 -6 25 -24 23 -160 -2
-198 -31 -48 -17 -58 79 -58 94 0 110 10 82 53 -10 16 -16 56 -19 125 -3 95
-5 103 -31 129 -37 37 -110 39 -157 5 l-32 -24 -23 22 c-34 32 -96 37 -138 12
-34 -19 -35 -19 -51 -1 -18 21 -23 22 -85 5z"/>
<path d="M13262 1199 c-62 -31 -92 -80 -92 -150 0 -117 97 -190 223 -168 47 8
89 38 101 72 14 37 2 43 -34 17 -43 -31 -114 -24 -147 15 -13 14 -23 30 -23
35 0 5 46 11 103 12 l102 3 3 46 c2 38 -2 52 -25 79 -51 62 -134 77 -211 39z
m118 -49 c11 -11 20 -29 20 -40 0 -18 -7 -20 -55 -20 -30 0 -55 2 -55 5 0 14
31 64 42 68 22 9 27 8 48 -13z"/>
<path d="M14115 1201 c-127 -57 -140 -222 -23 -294 59 -36 154 -41 196 -10 65
49 81 111 19 73 -67 -41 -167 -10 -167 51 0 5 42 9 94 9 109 0 122 8 113 67
-17 102 -128 152 -232 104z m117 -55 c4 -6 8 -21 8 -33 0 -21 -5 -23 -50 -23
-41 0 -50 3 -50 18 1 49 66 76 92 38z"/>
<path d="M14446 1207 c-51 -16 -64 -36 -48 -80 18 -49 15 -162 -4 -192 -29
-45 -14 -55 81 -55 95 0 110 10 81 55 -12 18 -16 49 -16 120 0 87 2 95 19 95
11 0 23 -9 26 -20 9 -28 48 -52 71 -43 84 31 40 142 -51 130 -22 -3 -41 -11
-43 -16 -5 -16 -29 -13 -36 4 -6 18 -26 18 -80 2z"/>
<path d="M14788 1206 c-62 -19 -70 -34 -48 -81 26 -53 26 -130 0 -180 -30 -59
-23 -65 75 -65 96 0 107 8 81 59 -12 22 -16 60 -16 144 0 142 -6 150 -92 123z"/>
<path d="M12216 1202 c-12 -19 -18 -110 -8 -116 6 -4 25 9 43 29 25 27 40 35
66 35 l33 0 -81 -120 c-51 -74 -79 -125 -76 -135 5 -12 29 -15 146 -15 83 0
142 4 146 10 3 6 10 33 14 61 10 64 -8 76 -47 30 -25 -29 -82 -48 -105 -34 -4
2 26 53 68 113 41 60 75 118 75 130 0 19 -6 20 -134 20 -74 0 -137 -4 -140 -8z"/>
</g>
</svg>
