<?xml version="1.0" standalone="no"?>
<!DOCTYPE svg PUBLIC "-//W3C//DTD SVG 20010904//EN"
 "http://www.w3.org/TR/2001/REC-SVG-20010904/DTD/svg10.dtd">
<svg version="1.0" xmlns="http://www.w3.org/2000/svg"
 width="1024.000000pt" height="1024.000000pt" viewBox="0 0 1024.000000 1024.000000"
 preserveAspectRatio="xMidYMid meet">

<g transform="translate(0.000000,1024.000000) scale(0.100000,-0.100000)"
fill="#000000" stroke="none">
<path d="M6107 7465 c-93 -53 -127 -65 -127 -46 0 4 -12 20 -26 35 -58 58
-158 22 -272 -98 -94 -99 -153 -181 -197 -270 -43 -88 -61 -160 -75 -299 -9
-91 -8 -118 5 -170 30 -118 74 -159 173 -161 49 -1 72 6 157 47 55 27 134 73
177 104 73 52 221 208 277 290 14 21 56 79 93 130 97 131 106 165 51 213 -25
22 -26 24 -19 125 6 94 5 104 -15 128 -34 44 -85 37 -202 -28z m33 -130 c31
-34 30 -123 -5 -205 -87 -208 -262 -394 -441 -470 -96 -42 -124 -19 -124 101
0 250 155 481 380 567 81 30 81 30 126 31 31 1 46 -5 64 -24z"/>
<path d="M4786 7179 c-102 -25 -224 -119 -291 -223 -123 -193 -138 -412 -39
-564 84 -128 208 -152 380 -71 120 56 230 187 295 351 31 75 34 93 34 188 0
89 -4 113 -23 155 -28 60 -83 119 -137 147 -46 24 -157 33 -219 17z m156 -200
c58 -71 54 -202 -8 -328 -49 -98 -111 -160 -190 -189 -98 -35 -108 -32 -144
41 -39 81 -47 152 -26 235 20 81 48 134 98 188 54 59 129 94 192 91 43 -2 53
-7 78 -38z"/>
<path d="M4764 6920 c-35 -14 -103 -90 -120 -135 -8 -23 -14 -55 -12 -71 4
-36 43 -60 82 -50 22 5 35 24 76 112 50 106 52 127 19 144 -20 11 -17 11 -45
0z"/>
<path d="M6285 6610 c-220 -56 -429 -212 -525 -391 -39 -73 -57 -186 -41 -247
39 -140 320 -246 526 -198 81 20 229 91 291 142 67 56 150 163 191 250 37 76
38 83 38 184 0 82 -4 113 -19 143 -53 108 -274 164 -461 117z m264 -170 c19
-5 38 -15 43 -22 14 -23 8 -108 -13 -170 -44 -132 -135 -224 -276 -281 -68
-28 -90 -32 -173 -32 -91 0 -98 2 -169 38 l-74 39 6 52 c13 126 114 241 287
327 33 16 83 36 112 43 62 17 208 20 257 6z"/>
<path d="M5225 6608 c-53 -158 -70 -238 -80 -378 -9 -146 -5 -137 -78 -142
-51 -3 -76 -11 -122 -38 -119 -72 -227 -207 -289 -363 -54 -135 -69 -212 -69
-347 0 -113 3 -135 32 -230 43 -138 48 -144 132 -138 73 6 130 33 238 114 135
102 292 379 346 612 19 82 19 238 0 272 -21 36 -18 48 13 64 41 21 230 203
248 238 14 27 14 32 -1 48 -19 21 -91 36 -129 26 -14 -3 -52 -31 -85 -62 l-61
-56 6 134 c6 123 5 136 -14 173 -39 73 -76 104 -87 73z m-71 -689 c12 -63 6
-195 -14 -273 -21 -83 -95 -257 -132 -310 -73 -104 -192 -196 -219 -169 -5 5
-16 43 -25 84 -40 188 23 434 145 571 57 63 99 93 163 112 66 21 75 20 82 -15z"/>
<path d="M4034 6459 c-52 -15 -126 -71 -161 -122 -43 -63 -83 -193 -90 -287
-17 -236 124 -502 318 -601 55 -28 97 -24 177 17 212 106 323 405 246 664 -45
153 -159 277 -298 323 -53 18 -142 21 -192 6z m157 -177 c133 -85 196 -237
169 -408 -6 -38 -22 -92 -35 -120 -28 -58 -114 -144 -143 -144 -30 0 -120 87
-148 142 -34 67 -64 190 -64 263 0 126 49 239 120 276 45 24 48 24 101 -9z"/>
<path d="M4060 6122 c0 -11 -3 -28 -7 -38 -4 -12 -3 -15 5 -10 11 6 9 -31 -4
-71 -2 -7 3 -13 11 -13 9 0 15 9 15 23 0 18 2 19 10 7 7 -11 10 4 8 50 -2 52
-6 65 -20 68 -12 2 -18 -3 -18 -16z"/>
<path d="M3460 6073 c-41 -46 -77 -126 -144 -322 -174 -507 -128 -1066 122
-1486 130 -218 401 -506 607 -645 41 -27 77 -55 80 -61 4 -6 0 -27 -8 -47 -44
-101 -94 -377 -100 -545 -2 -62 0 -71 22 -88 13 -10 34 -19 48 -19 28 0 74 22
92 43 6 8 19 77 27 153 8 77 24 182 34 236 11 53 20 108 20 123 0 28 -16 65
-34 77 -27 19 16 6 80 -23 236 -107 607 -173 837 -149 275 29 481 89 727 212
248 124 394 247 605 511 104 130 160 229 258 456 67 158 54 241 -38 241 -63 0
-81 -26 -116 -166 -37 -147 -57 -192 -149 -330 -233 -348 -496 -558 -850 -680
-172 -59 -265 -75 -459 -81 -187 -6 -333 6 -463 37 -83 21 -228 88 -211 98 14
9 29 66 43 167 14 96 63 258 177 580 93 263 114 348 95 389 -15 34 -70 68
-103 63 -25 -3 -26 -2 -22 42 5 57 -24 111 -60 111 -48 0 -113 -59 -185 -170
-137 -212 -204 -408 -222 -652 -5 -73 -12 -148 -15 -166 -8 -43 9 -93 40 -120
21 -18 23 -25 15 -53 -5 -18 -14 -37 -19 -42 -28 -28 -196 85 -319 212 -244
253 -388 519 -453 833 -28 136 -32 172 -32 323 -1 142 4 195 26 322 32 179 58
263 138 433 33 69 59 138 59 152 0 34 -42 68 -85 68 -25 0 -40 -9 -65 -37z
m1137 -1363 c-3 -27 -33 -130 -65 -227 -113 -336 -191 -603 -203 -688 -10 -76
-9 -89 6 -111 21 -32 15 -38 -21 -22 -82 35 -97 99 -45 192 30 53 68 221 110
484 16 102 27 138 65 215 38 78 133 207 153 207 3 0 3 -22 0 -50z"/>
<path d="M5795 5585 c-213 -47 -378 -146 -463 -278 -48 -74 -61 -104 -73 -177
-12 -76 3 -122 58 -182 46 -48 152 -107 248 -139 55 -17 207 -15 282 4 76 20
233 93 290 135 114 85 224 265 231 380 l4 64 -58 56 c-130 126 -330 178 -519
137z m292 -193 c54 -28 113 -80 113 -98 0 -24 -46 -106 -90 -162 -33 -41 -59
-61 -124 -91 -133 -65 -172 -74 -288 -69 -88 4 -111 8 -158 32 -107 55 -123
93 -76 184 50 97 159 172 309 213 100 27 254 22 314 -9z"/>
<path d="M3740 5364 c-200 -101 -277 -355 -194 -642 32 -108 61 -164 123 -233
52 -59 157 -133 203 -144 41 -10 93 12 155 66 68 60 102 105 148 198 50 101
68 197 63 345 -3 119 -4 122 -43 196 -45 86 -106 149 -191 200 -50 30 -68 35
-134 38 -66 3 -82 0 -130 -24z m166 -150 c74 -35 146 -147 163 -252 10 -62 0
-178 -20 -242 -33 -100 -104 -200 -144 -200 -16 0 -86 57 -118 97 -40 50 -55
78 -77 153 -18 62 -21 93 -18 189 3 105 6 120 30 163 30 50 100 108 131 108
10 0 34 -7 53 -16z"/>
<path d="M5338 4640 c-179 -28 -336 -99 -435 -196 -97 -95 -160 -251 -151
-374 3 -43 6 -47 72 -92 76 -52 182 -100 278 -124 158 -41 428 35 561 156 122
111 214 321 186 423 -11 41 -87 115 -150 147 -111 57 -241 79 -361 60z m247
-203 c87 -40 108 -63 100 -107 -17 -90 -106 -205 -195 -250 -60 -30 -176 -60
-259 -67 -67 -5 -91 -2 -151 17 -89 29 -150 71 -150 105 0 13 10 50 21 81 29
78 89 136 193 185 121 58 166 69 281 66 85 -2 109 -7 160 -30z"/>
<path d="M6990 4010 c-163 -8 -264 -22 -286 -41 -22 -18 -17 -77 9 -102 l22
-22 600 0 c481 0 605 3 623 13 27 16 55 74 46 97 -9 24 -54 43 -125 54 -71 12
-642 12 -889 1z"/>
<path d="M6839 3560 c-91 -9 -236 -36 -279 -52 -14 -5 -39 -23 -57 -40 -27
-26 -36 -29 -60 -22 -15 4 -62 8 -103 7 -63 0 -90 -6 -170 -37 -92 -37 -123
-55 -185 -110 l-30 -27 25 -21 c21 -17 34 -19 80 -14 95 10 210 44 316 95
l103 49 373 7 c205 4 504 2 663 -3 352 -11 429 -6 456 27 26 32 24 63 -6 91
-50 47 -97 51 -585 55 -250 2 -494 0 -541 -5z"/>
</g>
</svg>
